HIERARCHY
ROOT HipCenter
{
    OFFSET 0.0 0.0 -0.0
    CHANNELS 6 Xposition Yposition Zposition Zrotation Xrotation Yrotation
    JOINT Spine
    {
        OFFSET 0.0 11.543257713317871 0.0
        CHANNELS 3 Zrotation Xrotation Yrotation
        JOINT ShoulderCenter
        {
            OFFSET 0.0 32.91801452636719 0.0
            CHANNELS 3 Zrotation Xrotation Yrotation
            JOINT LeftShoulder
            {
                OFFSET 18.90908432006836 0.0 0.0
                CHANNELS 3 Zrotation Xrotation Yrotation
                JOINT LeftElbow
                {
                    OFFSET 28.86017608642578 0.0 0.0
                    CHANNELS 3 Zrotation Xrotation Yrotation
                    JOINT LeftWrist
                    {
                        OFFSET 29.32445526123047 0.0 0.0
                        CHANNELS 3 Zrotation Xrotation Yrotation
                        JOINT LeftHand
                        {
                            OFFSET 3.776988983154297 0.0 0.0
                            CHANNELS 3 Zrotation Xrotation Yrotation
                            End Site
                            {
                                OFFSET 1.5107955932617188 0.0 0.0
                            }
                        }
                    }
                }
            }
            JOINT RightShoulder
            {
                OFFSET -18.90908432006836 0.0 0.0
                CHANNELS 3 Zrotation Xrotation Yrotation
                JOINT RightElbow
                {
                    OFFSET -28.86017608642578 0.0 0.0
                    CHANNELS 3 Zrotation Xrotation Yrotation
                    JOINT RightWrist
                    {
                        OFFSET -29.32445526123047 0.0 0.0
                        CHANNELS 3 Zrotation Xrotation Yrotation
                        JOINT RightHand
                        {
                            OFFSET -3.776988983154297 0.0 0.0
                            CHANNELS 3 Zrotation Xrotation Yrotation
                            End Site
                            {
                                OFFSET -1.5107955932617188 0.0 0.0
                            }
                        }
                    }
                }
            }
            End Site
            {
                OFFSET 0.0 13.167206764221191 0.0
            }
        }
    }
    JOINT LeftHip
    {
        OFFSET 13.487537384033203 0.0 0.0
        CHANNELS 3 Zrotation Xrotation Yrotation
        JOINT LeftKnee
        {
            OFFSET 0.0 -41.17974090576172 0.0
            CHANNELS 3 Zrotation Xrotation Yrotation
            JOINT LeftAnkle
            {
                OFFSET 0.0 -42.33354949951172 0.0
                CHANNELS 3 Zrotation Xrotation Yrotation
                JOINT LeftFoot
                {
                    OFFSET 0.0 -13.487957000732422 0.0
                    CHANNELS 3 Zrotation Xrotation Yrotation
                    End Site
                    {
                        OFFSET 0.0 0.0 5.3951826095581055
                    }
                }
            }
        }
    }
    JOINT RightHip
    {
        OFFSET -13.487537384033203 0.0 0.0
        CHANNELS 3 Zrotation Xrotation Yrotation
        JOINT RightKnee
        {
            OFFSET 0.0 -41.17974090576172 0.0
            CHANNELS 3 Zrotation Xrotation Yrotation
            JOINT RightAnkle
            {
                OFFSET 0.0 -42.33354949951172 0.0
                CHANNELS 3 Zrotation Xrotation Yrotation
                JOINT RightFoot
                {
                    OFFSET 0.0 -13.487957000732422 0.0
                    CHANNELS 3 Zrotation Xrotation Yrotation
                    End Site
                    {
                        OFFSET 0.0 0.0 5.3951826095581055
                    }
                }
            }
        }
    }
}
MOTION
Frames: 5
Frame Time: 0.03333333333333333
74.80000305175781 53.89999771118164 243.5 0.535491266551963 -21.43035730540226 -178.55962619633166 -4.794536930298465 16.629268931616934 -0.2619191018417878 6.79192120966963e-07 -1.4579562914861925e-06 -6.126957919173995 101.84172283514917 30.997962850345395 -51.69178203840507 1.5588591634973271e-06 4.5764905192898214e-07 110.79492246255259 1.2530372054862455e-06 -16.92234671925108 31.200185981795805 -4.770832022195277e-15 0.0 0.0 -87.7695264160126 7.126978476110417 47.75328893115426 9.444491658432287e-07 1.3614880712298052e-06 -118.06836310886405 -6.773153853632499e-07 -67.81975392121007 -33.58228013548971 1.590277340731758e-15 6.3611093629270335e-15 6.3611093629270335e-15 0.7798634614704494 -21.02619991614131 -17.914470306239988 -12.236797203311149 27.48769295647208 -26.609623829613767 118.35878151945815 -36.285452805229845 167.2548047132595 3.1805546814635168e-15 6.3611093629270335e-15 -3.1805546814635168e-15 3.38261561215 -22.97781011127911 15.940768830078909 8.790455008776254 29.414567849705357 20.99345115178002 -117.89142446748998 -35.79297149228978 -161.56864732254587 0.0 0.0 3.1805546814635168e-15
74.9000015258789 53.70000076293945 242.5 1.0708489682503355 -22.806064495562886 -178.13986514077257 -4.253556429875742 15.99873143270266 -0.3145930531865186 -1.0669603262503418e-07 -1.4443207643538343e-06 -6.122471811748749 100.33712302262813 31.200705738082007 -48.540175837012875 -5.508606744730071e-07 1.3173736046330536e-06 111.39591284385826 -3.354887153271644e-07 -18.81617289663201 32.361269298237026 -4.770832022195275e-15 0.0 0.0 -87.38610900643086 8.026030912465037 44.9431653832578 5.748470515238105e-07 -7.116907143878652e-07 -118.28309157432821 9.670928539470921e-06 -64.05737077923635 -35.12149927789132 7.951386703658792e-16 -4.4139062980501586e-32 -6.3611093629270335e-15 1.0227796732005472 -21.707161066915162 -17.427219803406498 -11.482067905673876 27.472319430954737 -26.826269407738458 118.10223195282403 -37.01110915424786 167.02689885223344 0.0 0.0 6.361109362927032e-15 3.7845718834956448 -23.695713095241988 16.072161087489164 8.930011037642975 29.29287255144231 20.967048316086455 -118.47846617500076 -35.32820611468706 -162.23410926109239 -1.7655625192200634e-31 6.3611093629270335e-15 3.1805546814635168e-15
75.0999984741211 53.60000228881836 241.40000915527344 1.6211207528451839 -23.45067074349446 -177.83154007204465 -3.8950727532723457 16.107768413166657 -0.18570417947722032 -2.0026974352989177e-07 -4.783298521424971e-07 -5.8878566349700545 98.84121849678957 30.890697886730116 -44.83465281130773 9.114209697206813e-07 3.0274882889386524e-06 112.20141305266485 -2.864382010109396e-06 -20.775074120907853 29.46499434075202 -4.770832022195277e-15 0.0 0.0 -86.81727175125575 8.866160909985405 42.22074351147684 1.5912495476509333e-06 2.750611001583609e-06 -118.61061508817768 9.173902155169655e-06 -62.065775453319695 -36.31626411268726 3.975693351829396e-16 0.0 0.0 1.7945802857819861 -21.81093908043712 -16.845591534446353 -11.477326722411608 27.543229829086826 -27.151108462285748 119.09579877518794 -37.493480017316784 167.6935910371565 3.1805546814635168e-15 6.3611093629270335e-15 -3.1805546814635168e-15 4.400019929208864 -23.680490897969246 15.52628149949909 8.65805864026315 29.351464993543562 21.27564341229071 -118.88168607248453 -35.47834720608372 -162.65460619487047 -3.1805546814635168e-15 6.3611093629270335e-15 -3.1805546814635168e-15
75.30000305175781 53.500003814697266 240.40000915527344 2.1816504510132306 -25.001025736503617 -177.20224162568766 -3.1354907436106587 15.055313120095006 -0.21665310782303576 -3.2024988805596886e-07 3.5353149755162387e-06 -6.094022289174345 97.15729737069427 30.099357003077166 -41.76307344792934 -1.3240520272930678e-06 -2.7021666433465776e-07 113.15898505056053 2.3212940263266835e-06 -20.461286228481654 28.395075746418573 3.1805546814635168e-15 -3.1805546814635168e-15 8.827812596100317e-32 -86.25031054756217 8.847078422172705 39.783334619781165 -8.351039565954664e-08 1.354146818989395e-06 -118.75281599638336 -6.459693812186688e-06 -61.16716647691057 -36.036997602765936 7.355032700884382e-15 -6.3611093629270335e-15 4.082863325696396e-31 2.5689514551374395 -22.981650827036344 -16.304921432702756 -11.704934900843064 27.710463191057013 -27.50898511128283 119.48587155473197 -37.818322790671004 167.95581105165076 3.1805546814635168e-15 6.3611093629270335e-15 -3.1805546814635168e-15 4.886284513049932 -24.458990007150156 15.667594631521292 8.593502401309044 28.949510885568145 21.29398817964727 -119.21682970586545 -34.986125810863165 -163.38202172392658 3.1805546814635168e-15 2.648343778830095e-31 9.54166404439055e-15
75.4000015258789 53.39999771118164 239.40000915527344 2.2239691199694294 -26.325037664594134 -176.7755750741196 -3.4000027737635015 14.006810711100105 -0.29702152849562313 1.2036009494148869e-07 -3.6657658252263845e-06 -6.934404119699818 96.28530820447662 30.0995208853773 -38.70065007946454 4.241578887504722e-06 3.93579229575915e-06 113.03615730708388 -4.432528990913953e-06 -15.985108728054172 28.478160982792467 -3.1805546814635168e-15 -1.7655625192200634e-31 6.3611093629270335e-15 -85.46791431058139 8.162279035208359 37.61650064362799 4.859789906811972e-06 1.7178614057804896e-06 -119.17871350105104 6.095890913073144e-06 -60.76647086241418 -35.70429338421231 -1.0343014735618663e-15 0.0 0.0 2.4073256453883576 -23.749805974648762 -15.837125199591148 -11.239035216281723 27.799111119311455 -27.90372484940986 119.17947331843772 -38.432035684506396 167.7684859655898 3.1805546814635168e-15 -3.531125038440127e-31 -1.2722218725854067e-14 4.717276130360137 -25.131951089413842 16.052293836545708 9.155290099308708 28.774538425616647 20.674912671148586 -119.4494067215866 -34.698238639990805 -163.28463427488367 1.7655625192200634e-31 -6.3611093629270335e-15 3.1805546814635168e-15
